<mxfile host="app.diagrams.net" modified="2020-04-20T10:33:50.137Z" agent="5.0 (Macintosh; Intel Mac OS X 10_15_4) AppleWebKit/605.1.15 (KHTML, like Gecko) Version/13.1 Safari/605.1.15" etag="0kuCC1xZwDVidoSUam_j" version="12.9.14" type="github">
  <diagram id="-8pv8ckmRpmnyrsvasd9" name="Page-1">
    <mxGraphModel dx="446" dy="1073" grid="1" gridSize="10" guides="1" tooltips="1" connect="1" arrows="1" fold="1" page="1" pageScale="1" pageWidth="827" pageHeight="1169" math="0" shadow="0">
      <root>
        <mxCell id="0" />
        <mxCell id="1" parent="0" />
        <mxCell id="UKYDxwV2-WhVh2L9JWCv-3" style="edgeStyle=orthogonalEdgeStyle;rounded=0;orthogonalLoop=1;jettySize=auto;html=1;entryX=0;entryY=0.5;entryDx=0;entryDy=0;" edge="1" parent="1" source="UKYDxwV2-WhVh2L9JWCv-1" target="UKYDxwV2-WhVh2L9JWCv-2">
          <mxGeometry relative="1" as="geometry" />
        </mxCell>
        <mxCell id="UKYDxwV2-WhVh2L9JWCv-1" value="Access (1)" style="rounded=0;whiteSpace=wrap;html=1;" vertex="1" parent="1">
          <mxGeometry x="280" y="170" width="120" height="60" as="geometry" />
        </mxCell>
        <mxCell id="UKYDxwV2-WhVh2L9JWCv-2" value="Ease of use (1)" style="rounded=0;whiteSpace=wrap;html=1;" vertex="1" parent="1">
          <mxGeometry x="520" y="90" width="120" height="60" as="geometry" />
        </mxCell>
        <mxCell id="UKYDxwV2-WhVh2L9JWCv-8" value="&lt;ol&gt;&lt;/ol&gt;&lt;span style=&quot;font-size: 12.99px&quot;&gt;Which of the available features, if any, did you find easy to use? Please provide examples of why it was easy.&lt;/span&gt;&lt;span style=&quot;font-size: 12.99px ; font-family: &amp;#34;baskerville&amp;#34; ; text-align: justify&quot;&gt;&lt;br&gt;&lt;/span&gt;&lt;ol&gt;&lt;br&gt;&lt;/ol&gt;" style="rounded=0;whiteSpace=wrap;html=1;align=left;" vertex="1" parent="1">
          <mxGeometry x="40" y="330" width="200" height="240" as="geometry" />
        </mxCell>
      </root>
    </mxGraphModel>
  </diagram>
</mxfile>
